PathFileType	4	(X/Y/Z)	C:\Users\Willi\Documents\GitHub\processC3D_GUI\exampleC3Dfiles\gait03_L1\marker_experimental.trc
DataRate	CameraRate	NumFrames	NumMarkers	Units	OrigDataRate	OrigDataStartFrame	OrigNumFrames
2.000000e+02	2.000000e+02	13	48	m	2.000000e+02	217	288
Frame#	Time	CLAV			GLAB			LANK			LASI			LELB			LFIN			LFMH			LHEE			LKNE			LMAS			LPEL			LPSI			LSHO			LTHAD			LTHAP			LTHI			LTIAD			LTIAP			LTIB			LTOE			LVMH			LWRA			LWRB			RANK			RASI			RBAK			RELB			RFIN			RFMH			RHEE			RKNE			RMAS			RPEL			RPSI			RSHO			RTHAD			RTHAP			RTHI			RTIAD			RTIAP			RTIB			RTOE			RVMH			RWRA			RWRB			SACR			T10			T2		
		X1	Y1	Z1	X2	Y2	Z2	X3	Y3	Z3	X4	Y4	Z4	X5	Y5	Z5	X6	Y6	Z6	X7	Y7	Z7	X8	Y8	Z8	X9	Y9	Z9	X10	Y10	Z10	X11	Y11	Z11	X12	Y12	Z12	X13	Y13	Z13	X14	Y14	Z14	X15	Y15	Z15	X16	Y16	Z16	X17	Y17	Z17	X18	Y18	Z18	X19	Y19	Z19	X20	Y20	Z20	X21	Y21	Z21	X22	Y22	Z22	X23	Y23	Z23	X24	Y24	Z24	X25	Y25	Z25	X26	Y26	Z26	X27	Y27	Z27	X28	Y28	Z28	X29	Y29	Z29	X30	Y30	Z30	X31	Y31	Z31	X32	Y32	Z32	X33	Y33	Z33	X34	Y34	Z34	X35	Y35	Z35	X36	Y36	Z36	X37	Y37	Z37	X38	Y38	Z38	X39	Y39	Z39	X40	Y40	Z40	X41	Y41	Z41	X42	Y42	Z42	X43	Y43	Z43	X44	Y44	Z44	X45	Y45	Z45	X46	Y46	Z46	X47	Y47	Z47	X48	Y48	Z48
217	2.12000	1.889	1.379	0.180	1.983	1.593	0.196	2.002	0.076	0.085	1.900	0.979	0.104	1.765	1.079	-0.022	1.851	0.759	-0.049	2.148	0.064	0.130	1.956	0.044	0.130	2.025	0.528	0.063	1.857	1.550	0.112	1.809	1.009	0.043	1.729	0.999	0.150	1.838	1.401	-0.006	1.963	0.661	0.037	1.923	0.713	0.029	1.915	0.650	0.047	2.023	0.282	0.063	1.986	0.337	0.060	1.972	0.273	0.069	2.103	0.076	0.106	2.124	0.044	0.071	1.851	0.845	-0.032	1.792	0.832	-0.020	1.646	0.072	0.222	1.903	0.975	0.306	1.731	1.349	0.293	1.801	1.093	0.438	1.958	0.795	0.451	1.804	0.042	0.192	1.600	0.036	0.173	1.781	0.489	0.286	1.847	1.540	0.246	1.811	1.033	0.341	1.727	1.003	0.241	1.844	1.409	0.363	1.826	0.641	0.325	1.822	0.704	0.343	1.778	0.656	0.332	1.710	0.242	0.256	1.696	0.304	0.271	1.660	0.250	0.257	1.763	0.056	0.208	1.758	0.032	0.253	1.931	0.868	0.421	1.882	0.854	0.461	1.737	1.037	0.193	1.735	1.195	0.183	1.762	1.424	0.184
218	2.12500	1.896	1.377	0.180	1.991	1.592	0.196	2.024	0.074	0.086	1.908	0.978	0.104	1.771	1.078	-0.022	1.855	0.758	-0.050	2.171	0.067	0.131	1.979	0.040	0.131	2.032	0.526	0.063	1.864	1.549	0.112	1.816	1.008	0.044	1.737	0.997	0.149	1.845	1.399	-0.006	1.971	0.659	0.037	1.930	0.711	0.030	1.922	0.648	0.047	2.037	0.281	0.064	1.999	0.334	0.061	1.987	0.270	0.070	2.125	0.077	0.107	2.147	0.045	0.072	1.856	0.844	-0.032	1.798	0.831	-0.020	1.646	0.073	0.222	1.910	0.974	0.306	1.738	1.347	0.293	1.808	1.091	0.438	1.968	0.794	0.450	1.804	0.042	0.192	1.600	0.036	0.172	1.784	0.488	0.286	1.855	1.538	0.247	1.818	1.031	0.341	1.734	1.002	0.241	1.851	1.407	0.364	1.830	0.640	0.325	1.827	0.703	0.343	1.782	0.656	0.332	1.711	0.242	0.256	1.697	0.303	0.270	1.661	0.250	0.256	1.763	0.056	0.207	1.758	0.032	0.252	1.940	0.868	0.421	1.891	0.853	0.461	1.744	1.036	0.193	1.743	1.193	0.183	1.769	1.423	0.184
219	2.13000	1.904	1.376	0.180	1.998	1.590	0.196	2.045	0.072	0.087	1.915	0.976	0.104	1.777	1.076	-0.021	1.860	0.756	-0.050	2.193	0.070	0.132	2.002	0.038	0.133	2.039	0.525	0.064	1.871	1.547	0.112	1.824	1.006	0.044	1.744	0.996	0.149	1.852	1.397	-0.006	1.978	0.657	0.037	1.938	0.710	0.030	1.929	0.647	0.047	2.051	0.279	0.065	2.011	0.331	0.062	2.002	0.267	0.071	2.147	0.079	0.108	2.170	0.047	0.073	1.862	0.842	-0.032	1.804	0.829	-0.019	1.647	0.073	0.221	1.917	0.972	0.307	1.745	1.346	0.293	1.816	1.090	0.439	1.978	0.794	0.450	1.804	0.042	0.191	1.600	0.037	0.171	1.786	0.488	0.286	1.862	1.537	0.247	1.825	1.030	0.342	1.741	1.001	0.241	1.858	1.406	0.364	1.834	0.639	0.325	1.831	0.702	0.343	1.787	0.655	0.333	1.712	0.241	0.256	1.699	0.303	0.270	1.662	0.250	0.256	1.763	0.056	0.207	1.758	0.032	0.252	1.949	0.867	0.420	1.901	0.852	0.461	1.751	1.034	0.193	1.750	1.192	0.183	1.776	1.421	0.184
220	2.13500	1.911	1.374	0.180	2.006	1.589	0.196	2.067	0.071	0.088	1.923	0.975	0.105	1.784	1.075	-0.021	1.865	0.754	-0.050	2.215	0.074	0.133	2.024	0.035	0.134	2.046	0.523	0.065	1.879	1.546	0.112	1.831	1.004	0.044	1.751	0.994	0.149	1.859	1.396	-0.006	1.985	0.655	0.038	1.945	0.708	0.030	1.936	0.645	0.047	2.065	0.278	0.065	2.024	0.329	0.063	2.017	0.264	0.072	2.169	0.081	0.109	2.192	0.049	0.074	1.868	0.840	-0.033	1.810	0.828	-0.019	1.647	0.073	0.221	1.924	0.971	0.307	1.752	1.344	0.293	1.824	1.088	0.439	1.987	0.794	0.449	1.804	0.042	0.191	1.600	0.037	0.171	1.789	0.487	0.286	1.870	1.536	0.247	1.831	1.029	0.342	1.748	1.000	0.241	1.865	1.404	0.364	1.839	0.638	0.325	1.836	0.701	0.344	1.791	0.654	0.333	1.713	0.241	0.255	1.700	0.303	0.270	1.663	0.250	0.256	1.763	0.056	0.207	1.758	0.032	0.252	1.958	0.867	0.420	1.910	0.851	0.460	1.758	1.033	0.193	1.757	1.191	0.183	1.784	1.420	0.184
221	2.14000	1.918	1.373	0.181	2.013	1.587	0.196	2.088	0.070	0.089	1.930	0.973	0.105	1.790	1.073	-0.021	1.870	0.752	-0.051	2.236	0.077	0.134	2.047	0.033	0.135	2.053	0.521	0.066	1.886	1.544	0.113	1.839	1.003	0.044	1.759	0.993	0.149	1.867	1.394	-0.006	1.992	0.653	0.038	1.952	0.706	0.030	1.943	0.643	0.047	2.079	0.277	0.066	2.036	0.326	0.064	2.031	0.261	0.074	2.190	0.083	0.110	2.214	0.052	0.075	1.874	0.839	-0.033	1.815	0.826	-0.019	1.647	0.073	0.220	1.931	0.969	0.308	1.760	1.343	0.293	1.831	1.087	0.440	1.997	0.793	0.449	1.804	0.042	0.191	1.600	0.037	0.170	1.792	0.487	0.286	1.877	1.534	0.247	1.838	1.027	0.342	1.755	0.998	0.240	1.873	1.402	0.364	1.843	0.637	0.325	1.841	0.700	0.344	1.796	0.654	0.334	1.714	0.241	0.255	1.702	0.303	0.270	1.664	0.250	0.256	1.763	0.056	0.206	1.758	0.032	0.252	1.967	0.866	0.420	1.919	0.849	0.460	1.765	1.031	0.193	1.764	1.189	0.183	1.791	1.418	0.184
222	2.14500	1.926	1.371	0.181	2.021	1.586	0.196	2.109	0.069	0.090	1.938	0.972	0.105	1.796	1.072	-0.021	1.875	0.750	-0.051	2.257	0.081	0.135	2.069	0.032	0.136	2.060	0.519	0.066	1.893	1.543	0.113	1.846	1.001	0.044	1.766	0.991	0.149	1.874	1.392	-0.006	1.998	0.651	0.038	1.959	0.704	0.030	1.950	0.641	0.048	2.093	0.276	0.067	2.048	0.324	0.065	2.045	0.259	0.075	2.210	0.085	0.110	2.235	0.055	0.077	1.879	0.837	-0.033	1.821	0.825	-0.019	1.647	0.074	0.220	1.938	0.968	0.308	1.767	1.341	0.294	1.839	1.085	0.440	2.007	0.793	0.448	1.804	0.042	0.191	1.600	0.038	0.170	1.794	0.486	0.286	1.884	1.533	0.247	1.845	1.026	0.342	1.762	0.997	0.240	1.880	1.401	0.365	1.848	0.636	0.325	1.847	0.699	0.344	1.800	0.653	0.334	1.715	0.241	0.255	1.703	0.303	0.270	1.665	0.250	0.255	1.763	0.056	0.206	1.758	0.032	0.251	1.976	0.865	0.419	1.928	0.848	0.460	1.773	1.030	0.193	1.771	1.188	0.183	1.798	1.417	0.185
223	2.15000	1.933	1.370	0.181	2.028	1.584	0.196	2.130	0.069	0.091	1.946	0.970	0.105	1.803	1.070	-0.021	1.881	0.748	-0.051	2.277	0.085	0.136	2.090	0.030	0.137	2.067	0.517	0.067	1.901	1.541	0.113	1.854	0.999	0.044	1.773	0.990	0.148	1.881	1.390	-0.005	2.005	0.648	0.039	1.966	0.701	0.030	1.956	0.639	0.048	2.106	0.275	0.067	2.060	0.321	0.066	2.059	0.257	0.076	2.230	0.087	0.111	2.256	0.058	0.078	1.885	0.835	-0.033	1.827	0.823	-0.019	1.647	0.074	0.220	1.944	0.966	0.308	1.774	1.340	0.294	1.847	1.083	0.440	2.016	0.792	0.448	1.804	0.042	0.191	1.600	0.038	0.169	1.797	0.486	0.286	1.892	1.531	0.247	1.851	1.025	0.342	1.769	0.996	0.240	1.887	1.399	0.365	1.852	0.635	0.325	1.852	0.698	0.344	1.805	0.652	0.334	1.716	0.241	0.255	1.705	0.303	0.270	1.667	0.251	0.255	1.763	0.056	0.206	1.758	0.032	0.251	1.985	0.864	0.419	1.937	0.847	0.460	1.780	1.028	0.192	1.778	1.186	0.183	1.806	1.415	0.185
224	2.15500	1.941	1.368	0.181	2.035	1.583	0.196	2.150	0.069	0.092	1.953	0.969	0.106	1.809	1.068	-0.020	1.886	0.746	-0.051	2.296	0.089	0.137	2.111	0.029	0.138	2.074	0.514	0.068	1.908	1.539	0.113	1.861	0.997	0.044	1.781	0.988	0.148	1.888	1.389	-0.005	2.011	0.646	0.039	1.973	0.699	0.031	1.962	0.636	0.048	2.119	0.274	0.068	2.071	0.319	0.067	2.073	0.254	0.077	2.250	0.090	0.112	2.277	0.061	0.079	1.891	0.833	-0.033	1.833	0.821	-0.020	1.648	0.074	0.219	1.951	0.965	0.309	1.781	1.338	0.294	1.855	1.081	0.441	2.026	0.792	0.447	1.804	0.042	0.191	1.600	0.039	0.169	1.801	0.485	0.286	1.899	1.530	0.247	1.858	1.023	0.342	1.777	0.994	0.240	1.895	1.397	0.365	1.857	0.634	0.325	1.857	0.697	0.344	1.810	0.652	0.335	1.718	0.241	0.255	1.706	0.303	0.270	1.668	0.251	0.255	1.763	0.056	0.206	1.758	0.032	0.251	1.993	0.863	0.419	1.947	0.846	0.460	1.787	1.026	0.192	1.785	1.185	0.183	1.813	1.414	0.185
225	2.16000	1.948	1.366	0.181	2.043	1.581	0.196	2.169	0.069	0.094	1.961	0.967	0.106	1.816	1.067	-0.020	1.891	0.745	-0.052	2.315	0.094	0.138	2.132	0.029	0.140	2.081	0.512	0.068	1.916	1.538	0.113	1.869	0.995	0.044	1.788	0.986	0.148	1.895	1.387	-0.005	2.018	0.643	0.039	1.980	0.697	0.031	1.969	0.634	0.048	2.132	0.274	0.069	2.083	0.317	0.068	2.086	0.252	0.078	2.269	0.093	0.113	2.297	0.064	0.080	1.897	0.831	-0.033	1.839	0.820	-0.020	1.648	0.075	0.219	1.958	0.963	0.309	1.789	1.337	0.294	1.862	1.080	0.441	2.035	0.791	0.447	1.805	0.042	0.191	1.600	0.040	0.169	1.804	0.484	0.286	1.907	1.528	0.247	1.865	1.022	0.342	1.784	0.993	0.239	1.902	1.395	0.365	1.862	0.633	0.326	1.862	0.695	0.345	1.815	0.651	0.335	1.719	0.241	0.255	1.708	0.303	0.270	1.669	0.251	0.255	1.763	0.056	0.206	1.757	0.032	0.251	2.002	0.862	0.418	1.956	0.844	0.459	1.794	1.025	0.192	1.792	1.183	0.183	1.820	1.412	0.185
226	2.16500	1.955	1.365	0.181	2.050	1.579	0.196	2.188	0.069	0.095	1.969	0.965	0.106	1.823	1.065	-0.020	1.896	0.743	-0.052	2.333	0.098	0.139	2.152	0.028	0.141	2.088	0.510	0.069	1.923	1.536	0.113	1.876	0.993	0.044	1.796	0.985	0.147	1.903	1.385	-0.005	2.024	0.640	0.039	1.986	0.694	0.031	1.975	0.631	0.049	2.145	0.273	0.070	2.094	0.315	0.069	2.099	0.251	0.079	2.287	0.096	0.115	2.316	0.067	0.082	1.903	0.829	-0.034	1.845	0.818	-0.020	1.648	0.075	0.219	1.965	0.962	0.309	1.796	1.335	0.294	1.870	1.078	0.441	2.044	0.790	0.446	1.805	0.041	0.191	1.601	0.041	0.168	1.807	0.484	0.286	1.914	1.527	0.247	1.872	1.020	0.342	1.791	0.991	0.239	1.910	1.393	0.365	1.866	0.632	0.326	1.867	0.694	0.345	1.820	0.651	0.336	1.721	0.241	0.255	1.710	0.304	0.270	1.671	0.252	0.255	1.763	0.056	0.206	1.757	0.032	0.251	2.011	0.861	0.418	1.965	0.843	0.459	1.802	1.023	0.191	1.800	1.182	0.183	1.828	1.411	0.186
227	2.17000	1.963	1.363	0.182	2.058	1.578	0.195	2.206	0.069	0.096	1.977	0.964	0.106	1.830	1.063	-0.020	1.902	0.741	-0.052	2.351	0.102	0.140	2.171	0.028	0.142	2.095	0.508	0.070	1.930	1.534	0.113	1.884	0.991	0.044	1.804	0.983	0.147	1.910	1.383	-0.005	2.030	0.638	0.039	1.993	0.692	0.031	1.981	0.629	0.049	2.157	0.272	0.070	2.105	0.313	0.070	2.112	0.249	0.080	2.304	0.099	0.116	2.334	0.071	0.083	1.909	0.827	-0.034	1.851	0.817	-0.020	1.648	0.076	0.219	1.972	0.960	0.310	1.803	1.333	0.295	1.878	1.076	0.441	2.054	0.790	0.446	1.805	0.041	0.191	1.601	0.041	0.168	1.811	0.483	0.287	1.922	1.525	0.247	1.879	1.019	0.342	1.798	0.990	0.239	1.917	1.392	0.366	1.871	0.631	0.326	1.873	0.693	0.345	1.825	0.650	0.336	1.722	0.241	0.255	1.712	0.304	0.270	1.673	0.252	0.255	1.764	0.056	0.206	1.757	0.032	0.251	2.020	0.860	0.417	1.973	0.841	0.459	1.809	1.021	0.191	1.807	1.180	0.183	1.835	1.409	0.186
228	2.17500	1.970	1.361	0.182	2.065	1.576	0.195	2.223	0.070	0.097	1.985	0.962	0.107	1.837	1.062	-0.021	1.907	0.739	-0.052	2.367	0.106	0.141	2.189	0.028	0.143	2.102	0.506	0.070	1.938	1.533	0.113	1.892	0.990	0.044	1.811	0.982	0.147	1.917	1.382	-0.005	2.037	0.635	0.040	2.000	0.689	0.032	1.988	0.627	0.049	2.169	0.272	0.071	2.116	0.312	0.071	2.125	0.247	0.081	2.321	0.102	0.117	2.351	0.074	0.085	1.915	0.825	-0.034	1.857	0.815	-0.021	1.649	0.077	0.219	1.979	0.959	0.310	1.811	1.332	0.295	1.886	1.074	0.442	2.063	0.789	0.445	1.805	0.041	0.191	1.601	0.042	0.168	1.815	0.483	0.287	1.929	1.524	0.248	1.886	1.017	0.342	1.806	0.988	0.238	1.925	1.390	0.366	1.876	0.630	0.326	1.878	0.692	0.346	1.830	0.649	0.336	1.724	0.242	0.255	1.714	0.304	0.270	1.674	0.253	0.255	1.764	0.056	0.206	1.757	0.032	0.251	2.028	0.859	0.417	1.982	0.840	0.458	1.816	1.020	0.191	1.814	1.179	0.183	1.843	1.408	0.186
229	2.18000	1.978	1.360	0.182	2.073	1.575	0.195	2.240	0.070	0.098	1.993	0.961	0.107	1.844	1.060	-0.021	1.912	0.737	-0.053	2.383	0.110	0.143	2.206	0.028	0.145	2.109	0.504	0.071	1.945	1.531	0.113	1.900	0.988	0.044	1.819	0.980	0.146	1.924	1.380	-0.004	2.043	0.632	0.040	2.007	0.687	0.032	1.994	0.624	0.049	2.181	0.271	0.072	2.127	0.310	0.072	2.137	0.246	0.082	2.337	0.105	0.118	2.368	0.077	0.086	1.921	0.823	-0.034	1.862	0.813	-0.021	1.649	0.078	0.219	1.986	0.957	0.311	1.818	1.330	0.295	1.894	1.072	0.442	2.072	0.788	0.445	1.805	0.041	0.191	1.601	0.044	0.168	1.819	0.482	0.287	1.937	1.522	0.248	1.892	1.016	0.342	1.813	0.987	0.238	1.933	1.388	0.366	1.882	0.629	0.327	1.884	0.691	0.346	1.835	0.649	0.337	1.725	0.242	0.255	1.717	0.304	0.270	1.676	0.254	0.255	1.764	0.056	0.206	1.757	0.032	0.251	2.037	0.858	0.416	1.991	0.839	0.458	1.824	1.018	0.190	1.821	1.177	0.183	1.850	1.406	0.186
